<?xml version="1.0" encoding="utf-8"?>
<!-- Generator: Adobe Illustrator 27.5.0, SVG Export Plug-In . SVG Version: 6.00 Build 0)  -->
<svg version="1.1" id="Capa_2_00000174583160797886262930000000574717726575293078_"
	 xmlns="http://www.w3.org/2000/svg" xmlns:xlink="http://www.w3.org/1999/xlink" x="0px" y="0px" viewBox="0 0 1898 2372"
	 style="enable-background:new 0 0 1898 2372;" xml:space="preserve">
<path style="fill:#EA4C90;" d="M1503.261,1551.575c-35.537-116.514-116.715-228.128-238.247-280.671
	c-11.343-4.903-24.458,1.289-28.133,13.086l-19.615,62.955l-34.428-79.203c65.089-368.303,17.06-632.44,17.06-632.44h0.001
	c-0.134-0.872-0.272-1.742-0.411-2.611l-0.004-0.029l-0.133-0.809c-0.093-0.573-0.185-1.146-0.28-1.717l-0.023-0.135l-0.13-0.765
	l-0.032-0.185c-0.088-0.518-0.175-1.036-0.265-1.553l-0.022-0.133l-0.138-0.783c-0.098-0.557-0.196-1.114-0.296-1.671l-0.027-0.151
	l-0.181-0.993l-0.258-1.414l-0.043-0.23l-0.199-1.049l-0.235-1.241l-0.071-0.371l-0.188-0.963l-0.249-1.272l-0.069-0.353
	l-0.207-1.024l-0.002-0.005l-0.224-1.114l-0.108-0.527l-0.159-0.764l-0.026-0.128l-0.248-1.19l-0.108-0.513l-0.177-0.825
	l-0.259-1.207l-0.129-0.596l-0.155-0.706l-0.278-1.257l-0.141-0.63l-0.166-0.734l-0.265-1.165l-0.16-0.698l-0.173-0.743l-0.247-1.06
	l-0.176-0.747l-0.189-0.794l-0.246-1.032l-0.188-0.776l-0.166-0.681l-0.257-1.047l-0.215-0.865l-0.166-0.666l-0.246-0.98
	l-0.233-0.917l-0.163-0.639l-0.254-0.986l-0.236-0.913l-0.166-0.633l-0.261-0.993l-0.263-0.988l-0.132-0.492l-0.277-1.026
	l-0.278-1.02l-0.138-0.508l-0.253-0.918l-0.328-1.18l-0.116-0.414l-0.254-0.905l-0.343-1.209l-0.112-0.392l-0.256-0.891
	l-0.364-1.258l-0.103-0.356l-0.266-0.903l-0.369-1.249l-0.069-0.234l-0.03-0.1l-0.259-0.865l-0.408-1.354l-0.007-0.023l-0.097-0.318
	l-0.214-0.702l-0.424-1.384l-0.369-1.188l-0.389-1.245l-0.369-1.167l-0.428-1.346l-0.163-0.509l-0.067-0.206l-0.117-0.361
	l-0.431-1.333l-0.201-0.617l-0.059-0.177l-0.116-0.351l-0.445-1.352l-0.203-0.61l-0.097-0.289l-0.026-0.078l-0.491-1.468l-0.2-0.593
	l-0.169-0.497l-0.445-1.309l-0.249-0.724l-0.123-0.353l-0.476-1.377l-0.253-0.725l-0.132-0.378l-0.465-1.321l-0.259-0.73
	l-0.161-0.452l-0.43-1.204l-0.309-0.855l-0.133-0.366l-0.433-1.197l-0.332-0.905l-0.125-0.339l-0.418-1.137l-0.357-0.956
	l-0.14-0.378l-0.41-1.096l-0.341-0.903l-0.028-0.075l-0.141-0.374l-0.388-1.021l-0.317-0.827l-0.08-0.209l-0.147-0.385l-0.381-0.99
	l-0.339-0.872l-0.086-0.223l-0.14-0.359l-0.334-0.856l-0.352-0.892l-0.129-0.329l-0.133-0.339c-0.287-0.724-0.575-1.447-0.864-2.169
	l-0.092-0.229l-0.152-0.378c-0.259-0.646-0.521-1.29-0.782-1.934l-0.018-0.045l-0.322-0.793c-0.211-0.52-0.426-1.038-0.64-1.558
	l-0.034-0.083c-0.32-0.775-0.64-1.548-0.963-2.322l-0.038-0.091l-0.259-0.624l-0.57-1.352l-0.162-0.384l-0.011-0.027l-0.248-0.587
	l-0.538-1.259l-0.461-1.079l-0.509-1.178l-0.503-1.163l-0.556-1.271l-0.441-1.009c-0.225-0.512-0.452-1.023-0.678-1.533l-0.328-0.74
	l-0.645-1.441l-0.41-0.914l-0.604-1.338l-0.437-0.963l-0.587-1.284l-0.466-1.013l-0.631-1.363l-0.404-0.871l-0.679-1.453
	l-0.396-0.843l-0.626-1.323l-0.467-0.985l-0.592-1.24l-0.503-1.049l-0.562-1.164l-0.537-1.107l-0.608-1.247l-0.444-0.906
	l-0.684-1.389l-0.433-0.876l-0.674-1.352l-0.424-0.85l-0.7-1.391l-0.446-0.884l-0.646-1.273l-0.474-0.927l-0.714-1.392l-0.404-0.784
	l-0.691-1.334l-0.507-0.975l-0.616-1.178l-0.541-1.029l-0.648-1.228l-0.465-0.877l-0.721-1.355l-0.432-0.806l-0.709-1.32
	l-0.492-0.911l-0.707-1.307l-0.42-0.771l-0.752-1.377l-0.473-0.86l-0.714-1.294l-0.474-0.854l-0.697-1.255l-0.552-0.986
	l-0.642-1.144l-0.533-0.944l-0.711-1.258l-0.483-0.847l-0.678-1.189l-0.619-1.078l-0.626-1.089l-0.48-0.828l-0.765-1.321
	l-0.452-0.775l-0.75-1.283l-0.622-1.058l-0.597-1.013l-0.55-0.928l-0.735-1.238l-0.183-0.306c-0.763-1.279-1.528-2.553-2.296-3.824
	l-0.178-0.293c-1.953-3.224-3.922-6.418-5.906-9.582l-0.181-0.29c-0.323-0.513-0.647-1.026-0.97-1.538l-0.304-0.484
	c-0.363-0.573-0.726-1.145-1.089-1.716l-0.166-0.261l-0.853-1.335l-0.483-0.754l-0.741-1.152l-0.514-0.798l-0.804-1.242
	l-0.503-0.775l-0.75-1.149l-0.539-0.824l-0.848-1.291l-0.414-0.63l-0.863-1.305l-0.46-0.694l-0.8-1.203l-0.506-0.76l-0.808-1.207
	l-0.484-0.722l-0.751-1.114l-0.617-0.913l-0.694-1.024l-0.545-0.802l-0.942-1.378l-0.316-0.463l-0.865-1.259l-0.561-0.814
	l-0.677-0.979l-0.653-0.943l-0.709-1.019l-0.563-0.806l-0.793-1.132l-0.49-0.699l-0.889-1.263l-0.422-0.597l-0.892-1.259
	l-0.39-0.551l-0.957-1.342l-0.383-0.535l-0.865-1.208l-0.552-0.768l-0.773-1.072l-0.5-0.691l-0.871-1.201l-0.422-0.58l-0.885-1.214
	l-0.466-0.636l-0.911-1.241l-0.326-0.444l-0.983-1.332l-0.433-0.585l-0.87-1.172l-0.417-0.56l-0.971-1.3l-0.262-0.351l-1.083-1.444
	l-0.196-0.26l-1.095-1.452l-0.348-0.459l-0.99-1.306l-0.296-0.389l-1.006-1.319l-0.372-0.486l-1.006-1.311l-0.111-0.146
	c-0.406-0.526-0.811-1.054-1.215-1.577l-0.096-0.125c-0.405-0.524-0.811-1.047-1.215-1.569l-0.126-0.162
	c-60.625-78.07-119.315-125.935-119.315-125.935c0.001,0.001-167.448,136.559-228.832,324.591l-0.107,0.329
	c-0.203,0.621-0.403,1.242-0.603,1.864l-0.152,0.474c-0.182,0.567-0.361,1.133-0.541,1.701l-0.221,0.698
	c-0.176,0.558-0.349,1.116-0.524,1.673l-0.186,0.601c-0.177,0.573-0.354,1.147-0.528,1.721l-0.205,0.669
	c-0.165,0.546-0.329,1.09-0.494,1.636l-0.23,0.771c-0.158,0.533-0.316,1.065-0.474,1.598l-0.198,0.677
	c-0.17,0.577-0.338,1.155-0.505,1.732l-0.089,0.307c-0.624,2.167-1.233,4.339-1.828,6.518l-0.029,0.104
	c-0.14,0.516-0.279,1.034-0.418,1.551l-0.248,0.919l-0.363,1.373l-0.181,0.681l-0.004,0.018l-0.089,0.338l-0.368,1.423l-0.212,0.823
	l-0.079,0.309l-0.313,1.237l-0.268,1.072l-0.01,0.036l-0.079,0.316l-0.247,1l-0.271,1.103l-0.108,0.443l-0.046,0.186l-0.162,0.677
	l-0.271,1.132l-0.313,1.324l-0.263,1.127l-0.287,1.24l-0.021,0.093l-0.272,1.201l-0.277,1.225l-0.039,0.175l-0.148,0.67
	l-0.092,0.414c-0.118,0.537-0.236,1.073-0.352,1.61l-0.161,0.752l-0.259,1.21l-0.153,0.729l-0.167,0.802l-0.205,0.988l-0.164,0.806
	l-0.177,0.878l-0.16,0.792l-0.211,1.069l-0.157,0.795l-0.108,0.555l-0.235,1.225l-0.151,0.793l-0.061,0.324l-0.046,0.249
	l-0.196,1.055l-0.187,1.017l-0.111,0.615l-0.153,0.849l-0.203,1.145l-0.134,0.766l-0.114,0.659l-0.2,1.169l-0.149,0.878
	l-0.083,0.492l-0.239,1.46l-0.132,0.809l-0.026,0.158c-0.136,0.851-0.271,1.703-0.402,2.556h0.001
	c0,0-47.648,262.034,16.286,628.041l-41.214,90.955l-21.906-70.307c-3.676-11.798-16.791-17.99-28.133-13.086
	c-121.533,52.543-202.711,164.157-238.248,280.671c-30.745,100.804-32.407,206.08-28.624,310.866
	c0.725,20.069,26.604,27.589,38.043,11.085c77.443-111.733,205.665-204.194,341.057-253.421
	c10.413-3.786,15.895-15.208,12.599-25.786l-33.375-107.115h50.846c9.867,34.88,20.816,70.314,32.951,106.2H807.6l0.068,0.199
	c0.87,2.57,1.745,5.141,2.625,7.714l0.314,0.913c0.744,2.169,1.493,4.34,2.245,6.512c0.235,0.679,0.471,1.359,0.707,2.039
	c0.648,1.864,1.299,3.73,1.953,5.595c0.249,0.709,0.496,1.419,0.746,2.129c0.871,2.479,1.747,4.958,2.63,7.44
	c0,4.551,5.428,8.844,15.033,12.624c-8.195,10.385-13.478,22.417-13.217,34.898c0.383,18.247,12.187,34.608,19.043,51.86
	c13.902,34.986,6.343,75.813-19.489,105.256c11.354-3.523,22.079-8.082,31.336-14.408c-18.079,18.08-25.141,44.535-20.068,68.224
	c5.124,23.921,22.663,44.179,34.957,66.047c12.295,21.866,18.844,49.567,2.677,69.447c10.256-2.375,19.802-9.735,23.578-18.343
	c2.788,31.022,18.068,61.22,41.546,84.738c23.479,23.518,55.792,40.283,90.778,47.098c-23.46-39.867-24.61-90.736-0.984-130.531
	c15.492-26.093,46.585-45.981,52.225-74.923c5.641-28.941-2.021-59.672-20.943-84.003c6.062,7.063,15.439,9.717,25.477,11.018
	c-16.131-16.035-24.014-40.508-22.156-61.732c2.307-26.337,28.715-50.081,30.726-76.437c2.07-27.139-11.834-54.418-34.962-72.612
	c21.082-4.849,33.883-11.229,33.883-18.22c16.731-47.035,31.399-93.358,44.238-138.741h40.995l-33.375,107.115
	c-3.297,10.578,2.185,22,12.598,25.786c135.392,49.226,263.615,141.687,341.057,253.421c11.44,16.504,37.318,8.984,38.043-11.085
	C1535.67,1757.655,1534.007,1652.379,1503.261,1551.575z"/>
<path style="fill:#FBB814;" d="M951.29,1758.612l-18.782-105.529c-43.007-1.38-79.257-6.909-98.586-14.514
	c-8.196,10.385-13.479,22.417-13.217,34.898c0.383,18.248,12.187,34.608,19.043,51.861c13.902,34.985,6.343,75.812-19.489,105.256
	c11.354-3.523,22.08-8.082,31.336-14.407c-18.079,18.08-25.141,44.535-20.067,68.224c5.124,23.921,22.663,44.179,34.957,66.047
	c12.295,21.866,18.844,49.566,2.677,69.446c10.255-2.374,19.801-9.734,23.578-18.342c2.787,31.022,18.067,61.219,41.545,84.738
	c23.479,23.518,55.792,40.283,90.778,47.098c-23.461-39.867-24.61-90.738-0.983-130.531c15.492-26.093,46.584-45.982,52.224-74.923
	c5.641-28.941-2.021-59.674-20.943-84.004c6.062,7.064,15.438,9.718,25.476,11.018c-16.13-16.034-24.014-40.508-22.154-61.732
	c2.307-26.338,28.714-50.081,30.725-76.437c2.07-27.139-11.834-54.418-34.962-72.613c-21.584,4.966-51.848,8.323-85.942,9.089
	L951.29,1758.612z"/>
<path style="fill:#522681;" d="M682.392,1354.297l-21.907-70.308c-3.676-11.798-16.79-17.989-28.133-13.086
	c-121.532,52.543-202.711,164.157-238.248,280.671c-30.745,100.804-32.407,206.079-28.623,310.865
	c0.724,20.07,26.603,27.59,38.042,11.085c77.442-111.732,205.665-204.193,341.057-253.42c10.413-3.786,15.895-15.208,12.599-25.786
	l-33.375-107.115h50.848c-22.002-77.771-38.628-152.776-51.045-223.86L682.392,1354.297z"/>
<path style="fill:#522681;" d="M1503.262,1551.575c-35.537-116.514-116.716-228.129-238.248-280.671
	c-11.342-4.903-24.457,1.287-28.133,13.086l-19.616,62.955l-34.427-79.203c-12.332,69.778-28.723,143.294-50.271,219.462h40.995
	l-33.375,107.115c-3.296,10.578,2.186,22,12.599,25.786c135.391,49.227,263.615,141.688,341.057,253.42
	c11.44,16.505,37.318,8.985,38.043-11.085C1535.669,1757.654,1534.008,1652.379,1503.262,1551.575z"/>
<path style="fill:#6F4394;" d="M1199.899,635.301c-34.595-224.337-246.29-396.978-246.29-396.978
	c0,0-211.695,172.642-246.29,396.978H1199.899z"/>
<path style="fill:#12BBEE;" d="M1030.025,847.391l0.056,0.033c-24.404-14.255-52.797-22.426-83.099-22.426
	c-91.123,0-164.992,73.869-164.992,164.992c0,49.337,21.656,93.613,55.98,123.849l-0.248-0.217
	c31.241,39.236,79.418,64.387,133.47,64.387c94.176,0,170.52-76.344,170.52-170.521
	C1141.712,933.99,1095.211,871.354,1030.025,847.391z"/>
<circle style="fill:#7CCEF4;" cx="946.982" cy="989.99" r="135.806"/>
<polygon style="fill:#6F4394;" points="968.505,1653.253 1014.09,1374.286 948.489,1255.305 882.888,1374.286 932.508,1653.083 
	951.29,1758.612 "/>
<path style="fill:#DD066C;" d="M1141.712,1007.489c0-73.498-46.501-136.134-111.686-160.098
	c49.014,28.606,81.949,81.755,81.949,142.599c0,91.123-73.869,164.992-164.992,164.992c-41.905,0-80.159-15.623-109.261-41.361
	c31.241,39.236,79.418,64.387,133.47,64.387C1065.367,1178.009,1141.712,1101.665,1141.712,1007.489z"/>
<path style="fill:#59C4EE;" d="M1034.249,1094.048l1.329-1.13c2.642-2.277,5.196-4.654,7.656-7.125
	c0.82-0.823,1.629-1.658,2.427-2.502c0.799-0.844,1.586-1.698,2.363-2.563c0.607-0.675,1.208-1.355,1.801-2.043
	c1.297-1.502,2.56-3.033,3.792-4.591l0.431-0.55c0.595-0.76,1.183-1.527,1.762-2.301c0.462-0.618,0.917-1.241,1.369-1.868
	c0.604-0.837,1.199-1.682,1.785-2.533c0.417-0.607,0.829-1.217,1.237-1.83c0.513-0.773,1.017-1.551,1.515-2.334
	c0.365-0.574,0.726-1.154,1.082-1.734c12.679-20.65,19.992-44.948,19.992-70.956l-0.002-0.253c-0.002-0.639-0.008-1.277-0.017-1.915
	l-0.013-0.665c-0.013-0.619-0.03-1.236-0.05-1.852l-0.011-0.333c-0.027-0.745-0.061-1.488-0.101-2.229l-0.008-0.148
	c-1.287-23.618-8.695-45.577-20.528-64.48c1.517,8.127,2.404,16.476,2.404,25.042c0,75.004-60.804,135.807-135.806,135.807
	c-48.575,0-91.072-25.585-115.076-63.931c9.982,53.484,51.244,95.958,104.109,107.593l0.022,0.005l1.073,0.23l0.351,0.074
	l0.949,0.194l0.48,0.095l0.856,0.166l0.599,0.113l0.773,0.142l0.789,0.139l0.591,0.102l1.417,0.233l0.065,0.01l1.345,0.205
	l0.263,0.038l1.265,0.179l0.274,0.037l1.259,0.163l0.289,0.035l1.383,0.162c1.384,0.154,2.776,0.288,4.173,0.401l0.339,0.029
	l1.047,0.076l0.614,0.043l0.957,0.059l0.673,0.039l0.938,0.047l0.713,0.031l0.91,0.036l0.719,0.023l0.922,0.026l0.739,0.013
	l0.911,0.016l0.632,0.005l0.965,0.005C980.209,1125.796,1010.647,1113.861,1034.249,1094.048z"/>
<path style="fill:#CAE9F8;" d="M943.706,982.973c2.473-1.677,4.853-3.426,7.137-5.234c-7.124-13.34,0.162-33.994,17.723-48.212
	c5.681-4.6,11.797-8.007,17.864-10.183c0.824-10.053-1.261-19.536-6.644-27.473c-17.096-25.202-60.965-25.276-97.987-0.164
	c-37.021,25.111-53.174,65.9-36.078,91.102C862.816,1008.011,906.685,1008.085,943.706,982.973z"/>
<path style="fill:#E8F5FD;" d="M950.843,977.738c0.623,1.168,1.356,2.28,2.203,3.327c10.526,13.001,34.542,11.005,53.64-4.458
	c19.098-15.463,26.046-38.537,15.519-51.538c-7.395-9.134-21.448-10.865-35.776-5.726c-6.067,2.176-12.183,5.583-17.864,10.183
	C951.005,943.744,943.719,964.398,950.843,977.738z"/>
<path style="fill:#FAD416;" d="M1060.847,1724.082c3.307-29.784-14.874-60.656-43.147-73.965c-3.352,0.37-6.79,0.712-10.306,1.025
	c-12.137,1.079-25.204,1.803-38.889,2.111l-17.216,105.359l-0.123-0.692v0.001l-18.659-104.838
	c-13.936-0.447-27.163-1.33-39.334-2.578c-6.641-0.681-12.97-1.471-18.926-2.358c-8.206,9.027-13.984,20.155-14.242,32.001
	c-0.326,15.032,8.009,28.864,12.589,43.276c9.288,29.228,2.221,62.602-18.22,86.043c8.667-2.551,16.896-5.973,24.078-10.894
	c-14.22,14.325-20.43,35.884-17.408,55.541c3.052,19.848,15.573,37.065,24.093,55.444c8.52,18.379,12.516,41.382-0.325,57.248
	c7.801-1.638,15.235-7.402,18.37-14.371c1.053,25.622,11.539,50.951,28.423,71.033c16.884,20.082,40.647,34.879,66.758,41.567
	c-16.32-33.54-15.471-75.45,3.658-107.479c12.542-21.001,36.622-36.414,41.843-60.064c5.222-23.649,0.489-49.182-12.936-69.793
	c4.326,6.001,11.295,8.474,18.809,9.854c-11.604-13.697-16.715-34.085-14.6-51.499
	C1037.763,1764.446,1058.444,1745.716,1060.847,1724.082z"/>
<path style="fill:#E46831;" d="M951.166,1757.92v0.001l-18.659-104.838c-13.936-0.447-27.163-1.33-39.334-2.578
	c-3.592,5.366-6.033,11.411-6.572,17.831c-1.01,12.034,4.606,23.49,7.346,35.245c5.557,23.838-1.492,50.273-18.171,68.151
	c6.698-1.659,13.107-4.036,18.8-7.661c-11.503,10.849-17.302,27.853-16.009,43.741c1.306,16.044,9.923,30.399,15.446,45.508
	c5.525,15.109,7.386,33.723-3.149,45.869c5.994-0.967,11.922-5.256,14.65-10.702c-0.501,20.582,6.161,41.349,17.937,58.195
	c11.777,16.846,29.035,29.761,48.483,36.282c-10.666-27.608-7.898-61.16,8.224-85.979c10.57-16.275,29.6-27.558,34.757-46.281
	c5.156-18.723,2.865-39.397-6.264-56.513c2.974,5.002,8.13,7.294,13.755,8.734c-8.099-11.494-10.938-28.062-8.452-41.924
	c3.085-17.202,19.708-31.295,22.626-48.528c4.032-23.814-8.289-49.468-29.184-61.332c-12.137,1.079-25.204,1.803-38.889,2.111
	l-17.216,105.359L951.166,1757.92z"/>
<path style="fill:#D63C7E;" d="M1199.898,635.301h-136.851c74.128,103.054,119.124,238.544,119.124,386.962
	c0,189.136-73.073,357.278-186.387,464.052l-27.279,166.938c13.685-0.308,26.752-1.032,38.889-2.111
	c3.516-0.313,6.954-0.655,10.306-1.025c13.906-1.536,26.336-3.557,36.747-5.953c21.082-4.849,33.882-11.229,33.882-18.219
	c16.732-47.035,31.399-93.358,44.238-138.741c21.548-76.168,37.94-149.684,50.271-219.463
	C1247.927,899.438,1199.898,635.301,1199.898,635.301z"/>
<path style="fill:#D63C7E;" d="M893.173,1650.506c12.172,1.248,25.398,2.13,39.334,2.578l-18.628-104.668
	c-33.429,19.904-69.042,35.131-106.278,44.988l-0.001,0.001l0.102,0.299c0.847,2.503,1.7,5.009,2.557,7.516l0.471,1.37
	c0.687,2.003,1.378,4.007,2.073,6.013c0.268,0.773,0.536,1.546,0.805,2.319c0.635,1.827,1.273,3.654,1.914,5.483
	c0.241,0.688,0.481,1.375,0.724,2.064c0.876,2.49,1.755,4.982,2.643,7.477c0,4.551,5.428,8.843,15.033,12.624
	c9.648,3.797,23.509,7.075,40.324,9.578C880.202,1649.035,886.532,1649.825,893.173,1650.506z"/>
<polygon style="fill:#522681;" points="951.166,1757.92 948.489,1255.305 882.888,1374.286 882.888,1374.286 905.719,1502.568 
	913.879,1548.416 932.507,1653.083 951.166,1757.921 "/>
<path style="fill:#B08BBF;" d="M876.772,417.755c16.518,11.859,45.992-0.933,65.832-28.57c19.84-27.636,22.532-59.652,6.014-71.51
	c-16.518-11.858-45.992,0.933-65.832,28.57C862.947,373.881,860.254,405.897,876.772,417.755z"/>
<path style="fill:#B08BBF;" d="M822.63,490.18c10.43,7.488,29.041-0.589,41.569-18.04c12.527-17.451,14.228-37.667,3.797-45.155
	c-10.431-7.487-29.041,0.59-41.569,18.04C813.9,462.475,812.199,482.692,822.63,490.18z"/>
<path style="fill:#603585;" d="M1199.485,632.676l-0.002-0.016l-0.133-0.809c-0.096-0.59-0.192-1.182-0.291-1.772l-0.013-0.079
	l-0.13-0.765l-0.021-0.124l-0.084-0.493l-0.204-1.198l-0.01-0.057l-0.138-0.782c-0.102-0.58-0.203-1.16-0.308-1.739l-0.016-0.093
	l-0.18-0.984c-0.092-0.503-0.183-1.006-0.277-1.509l-0.024-0.135l-0.199-1.049l-0.266-1.401l-0.04-0.211l-0.191-0.977l-0.276-1.406
	l-0.038-0.195l-0.194-0.962l-0.3-1.476l-0.046-0.23l-0.17-0.818c-0.106-0.509-0.212-1.018-0.319-1.527l-0.055-0.263l-0.188-0.877
	l-0.295-1.373l-0.065-0.304l-0.198-0.9l-0.321-1.45l-0.07-0.313l-0.176-0.776l-0.321-1.408l-0.077-0.34l-0.196-0.846l-0.34-1.453
	l-0.075-0.321l-0.171-0.718c-0.121-0.511-0.244-1.022-0.368-1.532l-0.071-0.295l-0.178-0.733c-0.129-0.526-0.259-1.052-0.389-1.578
	l-0.08-0.324l-0.155-0.618c-0.131-0.526-0.264-1.051-0.398-1.577l-0.095-0.376l-0.169-0.658l-0.365-1.413l-0.124-0.479l-0.176-0.669
	l-0.387-1.463l-0.104-0.393l-0.164-0.611c-0.158-0.587-0.317-1.174-0.477-1.762l-0.063-0.23l-0.132-0.486
	c-0.16-0.583-0.322-1.167-0.484-1.75l-0.089-0.322l-0.142-0.51c-0.146-0.518-0.292-1.035-0.439-1.552l-0.122-0.432l-0.165-0.578
	c-0.171-0.597-0.344-1.194-0.517-1.791l-0.078-0.269l-0.107-0.369c-0.217-0.745-0.437-1.488-0.658-2.232l-0.08-0.271
	c-0.274-0.92-0.552-1.84-0.832-2.759l-0.245-0.804c-0.25-0.817-0.502-1.632-0.755-2.446l-0.191-0.61
	c-0.277-0.885-0.557-1.77-0.838-2.653l-0.09-0.283c-0.323-1.012-0.65-2.022-0.98-3.031l-0.093-0.279
	c-0.243-0.743-0.488-1.485-0.735-2.227l-0.089-0.265c-0.246-0.736-0.492-1.473-0.741-2.207l-0.132-0.386
	c-0.235-0.692-0.471-1.384-0.708-2.075l-0.171-0.494c-0.225-0.652-0.451-1.303-0.679-1.954l-0.195-0.554l-0.004-0.013
	c-0.225-0.642-0.451-1.283-0.679-1.923l-0.17-0.477l-0.022-0.061c-0.22-0.617-0.441-1.233-0.663-1.848l-0.223-0.615l-0.026-0.071
	c-0.219-0.605-0.439-1.208-0.661-1.811l-0.205-0.559l-0.024-0.062c-0.217-0.59-0.435-1.179-0.654-1.768l-0.237-0.634l-0.024-0.065
	c-0.225-0.602-0.451-1.204-0.679-1.806l-0.21-0.555l-0.01-0.025c-0.231-0.609-0.462-1.216-0.695-1.823l-0.23-0.599l-0.011-0.029
	c-0.232-0.601-0.465-1.203-0.698-1.804l-0.24-0.617l-0.002-0.005c-0.244-0.625-0.489-1.25-0.736-1.873l-0.177-0.448l-0.013-0.031
	c-0.252-0.636-0.505-1.272-0.759-1.907l-0.005-0.012l-0.206-0.513l-0.005-0.012c-0.259-0.646-0.519-1.29-0.781-1.934l-0.176-0.435
	c-0.274-0.675-0.55-1.348-0.827-2.023l-0.147-0.357c-0.294-0.713-0.591-1.427-0.888-2.139l-0.094-0.228
	c-1.245-2.981-2.513-5.947-3.805-8.897l-0.068-0.156c-0.636-1.453-1.278-2.901-1.925-4.346l-0.023-0.053
	c-0.652-1.456-1.309-2.907-1.972-4.353l-0.044-0.097c-0.654-1.427-1.313-2.851-1.977-4.272l-0.076-0.163
	c-0.668-1.426-1.34-2.848-2.016-4.265l-0.03-0.063c-1.384-2.898-2.788-5.778-4.211-8.641l-0.001-0.001
	c-0.374-0.754-0.75-1.506-1.127-2.257l-0.053-0.106c-0.373-0.743-0.748-1.484-1.123-2.225l-0.002-0.002v-0.001
	c-0.36-0.711-0.722-1.42-1.084-2.128l-0.169-0.331c-0.745-1.453-1.495-2.902-2.25-4.346l-0.003-0.007l-0.008-0.016l-0.311-0.595
	l-0.497-0.946l-0.644-1.222l-0.564-1.063l-0.585-1.099l-0.566-1.058l-0.628-1.169l-0.502-0.93l-0.708-1.306l-0.42-0.771
	l-0.752-1.377l-0.473-0.86l-0.714-1.294l-0.474-0.854l-0.703-1.264l-0.5-0.893l-0.719-1.282l-0.463-0.82l-0.733-1.294l-0.521-0.915
	l-0.683-1.197l-0.49-0.855l-0.761-1.323l-0.328-0.566c-0.307-0.531-0.615-1.063-0.923-1.592l-0.154-0.264
	c-0.764-1.312-1.532-2.619-2.301-3.921l-0.164-0.276c-0.335-0.566-0.67-1.131-1.006-1.695l-0.503-0.842
	c-1.632-2.732-3.276-5.441-4.932-8.131l-0.834-1.354c-1.641-2.651-3.293-5.281-4.953-7.891l-0.094-0.147
	c-0.812-1.275-1.625-2.544-2.442-3.809l-0.108-0.167c-0.341-0.528-0.683-1.055-1.025-1.582l-0.287-0.442l-0.872-1.337l-0.451-0.691
	l-0.853-1.298l-0.414-0.63l-0.863-1.305l-0.46-0.695l-0.903-1.355l-0.348-0.521c-0.351-0.527-0.704-1.052-1.056-1.576l-0.217-0.324
	c-0.344-0.512-0.688-1.022-1.033-1.533l-0.291-0.43l-0.973-1.434l-0.356-0.524l-0.972-1.423l-0.317-0.463l-0.915-1.332l-0.443-0.643
	l-0.917-1.326l-0.345-0.498l-1.037-1.491l-0.246-0.353l-0.994-1.419l-0.382-0.545l-0.952-1.351l-0.338-0.478l-0.998-1.409
	l-0.307-0.432l-0.987-1.384l-0.383-0.536l-0.895-1.248l-0.441-0.613l-0.929-1.289l-0.37-0.512l-0.927-1.277l-0.422-0.579
	l-0.903-1.239l-0.414-0.566l-0.928-1.264l-0.359-0.487l-1.054-1.428l-0.117-0.157c-0.412-0.557-0.825-1.113-1.237-1.668
	l-0.022-0.029c-0.426-0.571-0.851-1.142-1.276-1.71l-0.11-0.147c-0.396-0.529-0.792-1.058-1.188-1.584l-0.196-0.26l-1.11-1.473
	l-0.234-0.309c-0.813-1.075-1.626-2.145-2.439-3.209l-0.162-0.212c-0.388-0.509-0.777-1.015-1.165-1.521l-0.113-0.146
	c-0.408-0.532-0.817-1.063-1.226-1.591l-0.001-0.003c-0.526-0.679-1.05-1.358-1.575-2.033l-0.339-0.436
	c-0.419-0.539-0.839-1.078-1.259-1.614l-0.377-0.482c-0.397-0.508-0.794-1.014-1.191-1.519l-0.427-0.543l-1.186-1.501l-0.228-0.289
	v0c-32.351,118.02-154.343,205.78-299.893,205.78c-14.401,0-28.57-0.86-42.445-2.521l-0.002-0.001
	c-0.192,0.58-0.382,1.159-0.571,1.739l-0.206,0.631c-0.17,0.521-0.338,1.044-0.506,1.566l-0.257,0.799l-0.459,1.445l-0.305,0.966
	l-0.446,1.426l-0.269,0.869l-0.458,1.489l-0.284,0.933l-0.418,1.383l-0.336,1.124l-0.36,1.213l-0.36,1.229l-0.348,1.196
	l-0.335,1.166l-0.354,1.239l-0.227,0.807c-0.273,0.969-0.542,1.94-0.809,2.911l-0.276,1.002l-0.276,1.023l-0.398,1.479l-0.242,0.916
	l-0.271,1.024l-0.005,0.019c-0.225,0.86-0.448,1.721-0.668,2.584l-0.1,0.396l-0.07,0.275c-0.165,0.65-0.33,1.299-0.492,1.95
	l-0.107,0.427l-0.096,0.392c-0.142,0.576-0.283,1.152-0.424,1.728l-0.148,0.605l-0.083,0.347c-0.144,0.598-0.287,1.196-0.428,1.794
	l-0.185,0.778c-0.17,0.726-0.339,1.451-0.507,2.179l-0.059,0.25l-0.04,0.174c-0.198,0.865-0.394,1.732-0.587,2.6l-0.148,0.67
	c-0.145,0.655-0.289,1.311-0.431,1.967l-0.177,0.827c-0.129,0.601-0.257,1.202-0.383,1.802l-0.009,0.044l-0.181,0.865
	c-0.126,0.607-0.251,1.215-0.375,1.823l-0.007,0.035l-0.152,0.749c-0.138,0.686-0.274,1.373-0.409,2.06l-0.12,0.605
	c-0.172,0.882-0.341,1.764-0.509,2.647l-0.057,0.311c-0.147,0.782-0.292,1.563-0.434,2.345l-0.121,0.67l-0.008,0.045
	c-0.117,0.648-0.233,1.295-0.347,1.943l-0.127,0.724l-0.029,0.166c-0.097,0.555-0.192,1.111-0.286,1.668l-0.156,0.914l-0.029,0.18
	c-0.095,0.571-0.19,1.141-0.282,1.714l-0.141,0.865l-0.001,0.007c-0.142,0.883-0.281,1.766-0.418,2.651h492.579
	C1199.764,634.425,1199.626,633.55,1199.485,632.676z"/>
<path style="fill:#542C75;" d="M1199.899,635.301c-0.135-0.876-0.273-1.75-0.413-2.624l-0.002-0.016l-0.133-0.809
	c-0.096-0.59-0.192-1.182-0.291-1.772l-0.013-0.079l-0.13-0.765l-0.021-0.124l-0.084-0.493l-0.204-1.198l-0.01-0.057l-0.138-0.782
	c-0.102-0.58-0.203-1.16-0.308-1.739l-0.016-0.093l-0.18-0.984c-0.092-0.503-0.183-1.006-0.277-1.509l-0.024-0.135l-0.199-1.049
	l-0.266-1.401l-0.04-0.211l-0.191-0.977l-0.276-1.406l-0.038-0.195l-0.194-0.962l-0.3-1.476l-0.046-0.23l-0.17-0.818
	c-0.106-0.509-0.212-1.018-0.319-1.527l-0.055-0.263l-0.188-0.877l-0.295-1.373l-0.065-0.304l-0.198-0.9l-0.321-1.45l-0.07-0.313
	l-0.176-0.776l-0.321-1.408l-0.077-0.34l-0.196-0.846l-0.34-1.453l-0.075-0.321l-0.171-0.718c-0.121-0.511-0.244-1.022-0.368-1.532
	l-0.071-0.295l-0.178-0.733c-0.129-0.526-0.259-1.052-0.389-1.578l-0.08-0.324l-0.155-0.618c-0.131-0.526-0.264-1.051-0.398-1.577
	l-0.095-0.376l-0.169-0.658l-0.365-1.413l-0.124-0.479l-0.176-0.669l-0.387-1.463l-0.104-0.393l-0.164-0.611
	c-0.158-0.587-0.317-1.174-0.477-1.762l-0.063-0.23l-0.132-0.486c-0.16-0.583-0.322-1.167-0.484-1.75l-0.089-0.322l-0.142-0.51
	c-0.146-0.518-0.292-1.035-0.439-1.552l-0.122-0.432l-0.165-0.578c-0.171-0.597-0.344-1.194-0.517-1.791l-0.078-0.269l-0.107-0.369
	c-0.217-0.745-0.437-1.488-0.658-2.232l-0.08-0.271c-0.274-0.92-0.552-1.84-0.832-2.759l-0.245-0.804
	c-0.25-0.817-0.502-1.632-0.755-2.446l-0.191-0.61c-0.277-0.885-0.557-1.77-0.838-2.653l-0.09-0.283
	c-0.323-1.012-0.65-2.022-0.98-3.031l-0.093-0.279c-0.243-0.743-0.488-1.485-0.735-2.227l-0.089-0.265
	c-0.246-0.736-0.492-1.473-0.741-2.207l-0.132-0.386c-0.235-0.692-0.471-1.384-0.708-2.075l-0.171-0.494
	c-0.225-0.652-0.451-1.303-0.679-1.954l-0.195-0.554l-0.004-0.013c-0.225-0.642-0.451-1.283-0.679-1.923l-0.17-0.477l-0.022-0.061
	c-0.22-0.617-0.441-1.233-0.663-1.848l-0.223-0.615l-0.026-0.071c-0.219-0.605-0.439-1.208-0.661-1.811l-0.205-0.559l-0.024-0.062
	c-0.217-0.59-0.435-1.179-0.654-1.768l-0.237-0.634l-0.024-0.065c-0.225-0.602-0.451-1.204-0.679-1.806l-0.21-0.555l-0.01-0.025
	c-0.231-0.609-0.462-1.216-0.695-1.823l-0.23-0.599l-0.011-0.029c-0.232-0.601-0.465-1.203-0.698-1.804l-0.24-0.617l-0.002-0.005
	c-0.244-0.625-0.489-1.25-0.736-1.873l-0.177-0.448l-0.013-0.031c-0.252-0.636-0.505-1.272-0.759-1.907l-0.005-0.012l-0.206-0.513
	l-0.005-0.012c-0.259-0.646-0.519-1.29-0.781-1.934l-0.176-0.435c-0.274-0.675-0.55-1.348-0.827-2.023l-0.147-0.357
	c-0.294-0.713-0.591-1.427-0.888-2.139l-0.094-0.228c-1.245-2.981-2.513-5.947-3.805-8.897l-0.068-0.156
	c-0.636-1.453-1.278-2.901-1.925-4.346l-0.023-0.053c-0.652-1.456-1.309-2.907-1.972-4.353l-0.044-0.097
	c-0.654-1.427-1.313-2.851-1.977-4.272l-0.076-0.163c-0.668-1.426-1.34-2.848-2.016-4.265l-0.03-0.063
	c-1.384-2.898-2.788-5.778-4.211-8.641l-0.001-0.001c-0.374-0.754-0.75-1.506-1.127-2.257l-0.053-0.106
	c-0.373-0.743-0.748-1.484-1.123-2.225l-0.002-0.002v-0.001c-0.36-0.711-0.722-1.42-1.084-2.128l-0.169-0.331
	c-0.745-1.453-1.495-2.902-2.25-4.346l-0.003-0.007l-0.008-0.016c-55.923,79.715-161.259,134.747-283.139,137.523
	c-52.099,1.188-101.612-7.303-145.878-23.435l-0.005,0.019c-0.225,0.86-0.448,1.721-0.668,2.584l-0.1,0.396l-0.07,0.275
	c-0.165,0.65-0.33,1.299-0.492,1.95l-0.107,0.427l-0.096,0.392c-0.142,0.576-0.283,1.152-0.424,1.728l-0.148,0.605l-0.083,0.347
	c-0.144,0.598-0.287,1.196-0.428,1.794l-0.185,0.778c-0.17,0.726-0.339,1.451-0.507,2.179l-0.059,0.25l-0.04,0.174
	c-0.198,0.865-0.394,1.732-0.587,2.6l-0.148,0.67c-0.145,0.655-0.289,1.311-0.431,1.967l-0.177,0.827
	c-0.129,0.601-0.257,1.202-0.383,1.802l-0.009,0.044l-0.181,0.865c-0.126,0.607-0.251,1.215-0.375,1.823l-0.007,0.035l-0.152,0.749
	c-0.138,0.686-0.274,1.373-0.409,2.06l-0.12,0.605c-0.172,0.882-0.341,1.764-0.509,2.647l-0.057,0.311
	c-0.147,0.782-0.292,1.563-0.434,2.345l-0.121,0.67l-0.008,0.045c-0.117,0.648-0.233,1.295-0.347,1.943l-0.127,0.724l-0.029,0.166
	c-0.097,0.555-0.192,1.111-0.286,1.668l-0.156,0.914l-0.029,0.18c-0.095,0.571-0.19,1.141-0.282,1.714l-0.141,0.865l-0.001,0.007
	c-0.142,0.883-0.281,1.766-0.418,2.651H1199.899z"/>
<path style="fill:#FFFFFF;" d="M764.757,1166.903c-10.853-90.244-15.33-181.219-13.398-272.092
	c1.081-50.827,4.194-101.597,9.268-152.182c1.189-11.857-23.455-8.219-24.491,2.116c-9.095,90.671-11.801,181.947-8.085,272.998
	c3.709,90.87,13.579,181.475,29.856,270.959c9.142,50.255,20.316,100.125,33.446,149.489c2.809,10.56,27.068,4.116,24.245-6.497
	C792.475,1344.755,775.498,1256.221,764.757,1166.903z"/>
<path style="fill:#FFFFFF;" d="M1373.963,1395.029c-20.271-21.841-42.45-41.661-66.088-59.783c-4.785-3.669-12.49-0.74-15.263,4.002
	c-3.362,5.747-0.795,11.585,4.002,15.263c79.252,60.758,139.482,146.229,171.352,240.755c9.087,26.952,15.865,54.63,20.355,82.714
	c0.952,5.954,8.374,9.261,13.723,7.792c6.338-1.742,8.746-7.752,7.791-13.723
	C1493.344,1568.902,1444.957,1471.522,1373.963,1395.029z"/>
<path style="fill:#FFFFFF;" d="M589.491,1335.246c-83.309,63.869-146.387,151.699-180.547,250.985
	c-9.61,27.932-16.751,56.652-21.415,85.818c-0.951,5.942,1.532,12.002,7.792,13.723c5.312,1.46,12.766-1.808,13.723-7.792
	c15.846-99.104,61.274-192.643,129.392-266.374c19.122-20.698,39.946-39.946,62.316-57.095c4.773-3.66,7.314-9.602,4.002-15.263
	C602.006,1334.549,594.302,1331.557,589.491,1335.246z"/>
</svg>
